<svg width="134" height="104" viewBox="0 0 134 104" fill="none" xmlns="http://www.w3.org/2000/svg">
<g filter="url(#filter0_bi_19_1399)">
<path fill-rule="evenodd" clip-rule="evenodd" d="M113.046 20.2778C113.046 20.8107 113.025 21.3387 112.985 21.8612C115.206 20.0276 118.053 18.926 121.157 18.926C128.25 18.926 134 24.6758 134 31.7685C134 38.6347 128.612 44.2423 121.833 44.5937V44.6112H72.4905V44.5408C66.0333 43.8652 61 38.4046 61 31.7685C61 25.1187 66.0541 19.6493 72.5306 18.9922C73.1938 8.39205 82.001 2.6446e-05 92.7683 2.6446e-05C103.967 2.6446e-05 113.046 9.0787 113.046 20.2778Z" fill="url(#paint0_linear_19_1399)"/>
</g>
<g filter="url(#filter1_f_19_1399)">
<ellipse cx="53.5" cy="72.5" rx="31.5" ry="9.5" fill="#949494" fill-opacity="0.7"/>
</g>
<g filter="url(#filter2_bi_19_1399)">
<path fill-rule="evenodd" clip-rule="evenodd" d="M77 35C77 35.7882 76.9696 36.5693 76.9099 37.3422C80.1949 34.6296 84.4071 33 89 33C99.4934 33 108 41.5066 108 52C108 62.158 100.029 70.4541 90 70.9741V71H89H19H17V70.896C7.44667 69.8966 0 61.8179 0 52C0 42.1618 7.47752 34.07 17.0593 33.0979C18.0405 17.4156 31.0704 5 47 5C63.5685 5 77 18.4315 77 35Z" fill="url(#paint1_linear_19_1399)"/>
</g>
<path fill-rule="evenodd" clip-rule="evenodd" d="M27.3256 83.5778C27.732 83.8544 28.2092 84.0013 28.6969 83.9999C29.1384 84.003 29.573 83.8878 29.9578 83.6657C30.3426 83.4435 30.6643 83.1222 30.891 82.7334L58.9342 36.0117C59.293 35.4132 59.4079 34.6938 59.254 34.009C59.1 33.3243 58.6895 32.7293 58.1114 32.3528C57.5157 32.0087 56.8144 31.9118 56.1513 32.0819C55.4882 32.2521 54.9138 32.6763 54.546 33.2675L26.5028 79.9188C26.3159 80.2124 26.1887 80.5417 26.1289 80.887C26.0691 81.2323 26.0778 81.5865 26.1547 81.9282C26.2315 82.2699 26.3748 82.5921 26.5761 82.8756C26.7773 83.1591 27.0322 83.3979 27.3256 83.5778ZM8.60718 83.9999C8.11947 84.0013 7.64229 83.8544 7.23587 83.5778C6.9425 83.3979 6.68756 83.1591 6.48636 82.8756C6.28515 82.5921 6.14182 82.2699 6.06498 81.9282C5.98814 81.5864 5.97934 81.2323 6.03916 80.887C6.09898 80.5417 6.22617 80.2124 6.41308 79.9188L26.5027 46.9885C26.678 46.6874 26.9107 46.4258 27.1869 46.2193C27.4631 46.0128 27.7771 45.8657 28.1101 45.7869C28.4431 45.708 28.7882 45.699 29.1247 45.7604C29.4611 45.8218 29.782 45.9523 30.0681 46.1441C30.6463 46.5207 31.0567 47.1157 31.2107 47.8004C31.3646 48.4851 31.2498 49.2045 30.8909 49.803L10.8012 82.7334C10.5745 83.1222 10.2529 83.4435 9.86808 83.6657C9.48328 83.8878 9.04867 84.003 8.60718 83.9999ZM50.2263 84C49.7386 84.0014 49.2614 83.8544 48.855 83.5778C48.5616 83.3979 48.3067 83.1591 48.1055 82.8756C47.9043 82.5922 47.761 82.2699 47.6841 81.9282C47.6073 81.5865 47.5985 81.2323 47.6583 80.887C47.7181 80.5418 47.8453 80.2125 48.0322 79.9189L62.2252 56.558C62.5921 55.9647 63.172 55.5435 63.8392 55.3854C64.5064 55.2274 65.2074 55.3453 65.7906 55.7136C66.3688 56.0902 66.7792 56.6852 66.9332 57.3699C67.0872 58.0547 66.9723 58.7741 66.6134 59.3726L52.4204 82.7334C52.1887 83.1176 51.866 83.4352 51.4823 83.6567C51.0986 83.8781 50.6665 83.9963 50.2263 84Z" fill="url(#paint2_linear_19_1399)"/>
<path fill-rule="evenodd" clip-rule="evenodd" d="M17.9594 71H17.0001V70.896C15.4508 70.7339 13.9569 70.3857 12.5411 69.874L26.5028 46.9885C26.678 46.6874 26.9107 46.4258 27.1869 46.2193C27.4632 46.0128 27.7772 45.8657 28.1102 45.7869C28.4432 45.708 28.7883 45.699 29.1247 45.7604C29.4612 45.8218 29.7821 45.9523 30.0682 46.1441C30.6463 46.5207 31.0567 47.1157 31.2107 47.8004C31.3647 48.4851 31.2498 49.2045 30.891 49.803L17.9594 71ZM31.8642 71L54.5461 33.2675C54.9138 32.6763 55.4883 32.2521 56.1513 32.0819C56.8144 31.9118 57.5158 32.0087 58.1114 32.3528C58.6896 32.7293 59.1 33.3243 59.254 34.009C59.408 34.6938 59.2931 35.4132 58.9342 36.0117L37.9336 71H31.8642ZM59.5491 71H53.451L62.2253 56.558C62.5922 55.9647 63.172 55.5435 63.8392 55.3854C64.5065 55.2274 65.2075 55.3453 65.7907 55.7136C66.3688 56.0902 66.7793 56.6852 66.9333 57.3699C67.0872 58.0547 66.9723 58.7741 66.6135 59.3726L59.5491 71Z" fill="#E0E0E0"/>
<defs>
<filter id="filter0_bi_19_1399" x="54" y="-7" width="87" height="58.6112" filterUnits="userSpaceOnUse" color-interpolation-filters="sRGB">
<feFlood flood-opacity="0" result="BackgroundImageFix"/>
<feGaussianBlur in="BackgroundImageFix" stdDeviation="3.5"/>
<feComposite in2="SourceAlpha" operator="in" result="effect1_backgroundBlur_19_1399"/>
<feBlend mode="normal" in="SourceGraphic" in2="effect1_backgroundBlur_19_1399" result="shape"/>
<feColorMatrix in="SourceAlpha" type="matrix" values="0 0 0 0 0 0 0 0 0 0 0 0 0 0 0 0 0 0 127 0" result="hardAlpha"/>
<feOffset dy="2"/>
<feGaussianBlur stdDeviation="4"/>
<feComposite in2="hardAlpha" operator="arithmetic" k2="-1" k3="1"/>
<feColorMatrix type="matrix" values="0 0 0 0 1 0 0 0 0 1 0 0 0 0 1 0 0 0 0.25 0"/>
<feBlend mode="normal" in2="shape" result="effect2_innerShadow_19_1399"/>
</filter>
<filter id="filter1_f_19_1399" x="0" y="41" width="107" height="63" filterUnits="userSpaceOnUse" color-interpolation-filters="sRGB">
<feFlood flood-opacity="0" result="BackgroundImageFix"/>
<feBlend mode="normal" in="SourceGraphic" in2="BackgroundImageFix" result="shape"/>
<feGaussianBlur stdDeviation="11" result="effect1_foregroundBlur_19_1399"/>
</filter>
<filter id="filter2_bi_19_1399" x="-7" y="-2" width="122" height="80" filterUnits="userSpaceOnUse" color-interpolation-filters="sRGB">
<feFlood flood-opacity="0" result="BackgroundImageFix"/>
<feGaussianBlur in="BackgroundImageFix" stdDeviation="3.5"/>
<feComposite in2="SourceAlpha" operator="in" result="effect1_backgroundBlur_19_1399"/>
<feBlend mode="normal" in="SourceGraphic" in2="effect1_backgroundBlur_19_1399" result="shape"/>
<feColorMatrix in="SourceAlpha" type="matrix" values="0 0 0 0 0 0 0 0 0 0 0 0 0 0 0 0 0 0 127 0" result="hardAlpha"/>
<feOffset dy="2"/>
<feGaussianBlur stdDeviation="4"/>
<feComposite in2="hardAlpha" operator="arithmetic" k2="-1" k3="1"/>
<feColorMatrix type="matrix" values="0 0 0 0 1 0 0 0 0 1 0 0 0 0 1 0 0 0 0.25 0"/>
<feBlend mode="normal" in2="shape" result="effect2_innerShadow_19_1399"/>
</filter>
<linearGradient id="paint0_linear_19_1399" x1="98.8519" y1="60.4954" x2="126.227" y2="-4.53901e-07" gradientUnits="userSpaceOnUse">
<stop stop-color="#DFDFDF"/>
<stop offset="1" stop-color="#92AABB" stop-opacity="0"/>
</linearGradient>
<linearGradient id="paint1_linear_19_1399" x1="56" y1="94.5" x2="96.5" y2="5" gradientUnits="userSpaceOnUse">
<stop stop-color="#DFDFDF"/>
<stop offset="1" stop-color="#92AABB" stop-opacity="0"/>
</linearGradient>
<linearGradient id="paint2_linear_19_1399" x1="14.7079" y1="73.4762" x2="64.8042" y2="23.875" gradientUnits="userSpaceOnUse">
<stop stop-color="#68717E"/>
<stop offset="1" stop-color="#DAE3EC"/>
</linearGradient>
</defs>
</svg>
