<svg width="17" height="17" viewBox="0 0 17 17" fill="none" xmlns="http://www.w3.org/2000/svg">
<path d="M13.993 3.00693C12.5833 1.59721 10.6486 0.722206 8.49999 0.722206C6.4372 0.722206 4.45889 1.54165 3.00027 3.00026C1.54166 4.45888 0.722214 6.43719 0.722214 8.49998C0.722214 10.5628 1.54166 12.5411 3.00027 13.9997C4.45889 15.4583 6.4372 16.2778 8.49999 16.2778C12.1264 16.2778 15.15 13.7986 16.0153 10.4444H13.993C13.1958 12.7097 11.0375 14.3333 8.49999 14.3333C6.95289 14.3333 5.46916 13.7187 4.3752 12.6248C3.28124 11.5308 2.66666 10.0471 2.66666 8.49998C2.66666 6.95289 3.28124 5.46916 4.3752 4.37519C5.46916 3.28123 6.95289 2.66665 8.49999 2.66665C10.1139 2.66665 11.5528 3.33748 12.6028 4.39721L9.47221 7.52776H16.2778V0.722206L13.993 3.00693Z" fill="white"/>
</svg>
