<svg width="108" height="100" viewBox="0 0 108 100" fill="none" xmlns="http://www.w3.org/2000/svg">
<g filter="url(#filter0_f_19_1547)">
<ellipse cx="53.5" cy="67.5" rx="31.5" ry="9.5" fill="#949494" fill-opacity="0.7"/>
</g>
<path d="M49.8069 75.2814L62.9076 51.2315C62.9853 51.0888 63.1348 51 63.2973 51H80.2814C80.6114 51 80.826 51.3474 80.6782 51.6426L73.8724 65.2324C73.7246 65.5276 73.9391 65.875 74.2692 65.875H81L43.8784 98.3564C43.5053 98.6829 42.959 98.2447 43.1967 97.8096L54.7873 76.5941C54.9489 76.2983 54.7349 75.9375 54.3979 75.9375H50.1966C49.8598 75.9375 49.6458 75.5771 49.8069 75.2814Z" fill="url(#paint0_linear_19_1547)"/>
<g filter="url(#filter1_bi_19_1547)">
<path fill-rule="evenodd" clip-rule="evenodd" d="M77 30C77 30.7882 76.9696 31.5693 76.9099 32.3422C80.1949 29.6296 84.4071 28 89 28C99.4934 28 108 36.5066 108 47C108 57.158 100.029 65.4541 90 65.9741V66H89H19H17V65.896C7.44667 64.8966 0 56.8179 0 47C0 37.1618 7.47752 29.07 17.0593 28.0979C18.0405 12.4156 31.0704 0 47 0C63.5685 0 77 13.4315 77 30Z" fill="url(#paint1_linear_19_1547)"/>
</g>
<path d="M12.7772 76.9555C12.2898 76.9718 11.8084 76.8395 11.3937 76.5754C11.0949 76.4046 10.8328 76.1737 10.623 75.8966C10.4132 75.6194 10.2601 75.3017 10.1728 74.9624C10.0856 74.6232 10.066 74.2695 10.1152 73.9226C10.1644 73.5756 10.2815 73.2426 10.4593 72.9434L29.5319 39.4138C29.6979 39.1075 29.9225 38.8389 30.1923 38.624C30.462 38.4092 30.7714 38.2526 31.1018 38.1636C31.4323 38.0745 31.7769 38.055 32.1151 38.106C32.4533 38.1571 32.778 38.2777 33.0698 38.4607C33.6592 38.8194 34.0877 39.4016 34.2625 40.0813C34.4374 40.761 34.3446 41.4836 34.0042 42.0927L14.9315 75.6224C14.7168 76.0179 14.4052 76.349 14.0273 76.5828C13.6495 76.8166 13.2186 76.945 12.7772 76.9555Z" fill="url(#paint2_linear_19_1547)"/>
<path d="M40.4836 75.1828C39.9961 75.1991 39.5147 75.0669 39.1 74.8028C38.8012 74.632 38.5391 74.4011 38.3293 74.1239C38.1195 73.8467 37.9665 73.529 37.8792 73.1898C37.7919 72.8506 37.7723 72.4969 37.8215 72.1499C37.8708 71.803 37.9878 71.4699 38.1657 71.1708L51.6372 47.3866C51.9858 46.7823 52.5525 46.3435 53.2146 46.1652C53.8767 45.9868 54.5809 46.0832 55.1751 46.4335C55.7645 46.7922 56.193 47.3743 56.3679 48.054C56.5427 48.7338 56.4499 49.4563 56.1095 50.0655L42.6379 73.8497C42.4181 74.2408 42.1052 74.5681 41.7285 74.8012C41.3518 75.0344 40.9234 75.1656 40.4836 75.1828Z" fill="url(#paint3_linear_19_1547)"/>
<path d="M21.4836 85.1828C20.9961 85.1991 20.5147 85.0669 20.1 84.8028C19.8012 84.632 19.5391 84.4011 19.3293 84.1239C19.1195 83.8467 18.9665 83.529 18.8792 83.1898C18.7919 82.8506 18.7723 82.4969 18.8215 82.1499C18.8708 81.803 18.9878 81.4699 19.1657 81.1708L32.6372 57.3866C32.9858 56.7823 33.5525 56.3435 34.2146 56.1652C34.8767 55.9868 35.5809 56.0832 36.1751 56.4335C36.7645 56.7922 37.193 57.3743 37.3679 58.054C37.5427 58.7338 37.4499 59.4563 37.1095 60.0655L23.6379 83.8497C23.4181 84.2408 23.1052 84.5681 22.7285 84.8012C22.3518 85.0344 21.9234 85.1656 21.4836 85.1828Z" fill="url(#paint4_linear_19_1547)"/>
<path fill-rule="evenodd" clip-rule="evenodd" d="M20.405 65.9999H18.9999H16.9999V65.8959C16.2142 65.8137 15.4427 65.6836 14.6884 65.5086L29.5319 39.4137C29.6979 39.1074 29.9225 38.8388 30.1923 38.624C30.462 38.4091 30.7714 38.2525 31.1018 38.1635C31.4323 38.0745 31.7769 38.0549 32.1151 38.106C32.4533 38.1571 32.778 38.2777 33.0698 38.4607C33.6593 38.8194 34.0877 39.4015 34.2626 40.0812C34.4374 40.7609 34.3446 41.4835 34.0042 42.0927L20.405 65.9999ZM33.7481 65.9999H27.7585L32.6372 57.3865C32.9858 56.7822 33.5525 56.3435 34.2146 56.1651C34.8767 55.9868 35.5809 56.0832 36.1751 56.4334C36.7645 56.7921 37.193 57.3743 37.3679 58.054C37.5427 58.7337 37.4499 59.4563 37.1095 60.0655L33.7481 65.9999ZM47.084 65.9999H41.0944L51.6372 47.3865C51.9858 46.7822 52.5525 46.3435 53.2146 46.1651C53.8767 45.9868 54.5809 46.0832 55.1751 46.4334C55.7645 46.7921 56.193 47.3743 56.3679 48.054C56.5427 48.7337 56.4499 49.4563 56.1095 50.0655L47.084 65.9999Z" fill="#E0E0E0"/>
<defs>
<filter id="filter0_f_19_1547" x="0" y="36" width="107" height="63" filterUnits="userSpaceOnUse" color-interpolation-filters="sRGB">
<feFlood flood-opacity="0" result="BackgroundImageFix"/>
<feBlend mode="normal" in="SourceGraphic" in2="BackgroundImageFix" result="shape"/>
<feGaussianBlur stdDeviation="11" result="effect1_foregroundBlur_19_1547"/>
</filter>
<filter id="filter1_bi_19_1547" x="-7" y="-7" width="122" height="80" filterUnits="userSpaceOnUse" color-interpolation-filters="sRGB">
<feFlood flood-opacity="0" result="BackgroundImageFix"/>
<feGaussianBlur in="BackgroundImageFix" stdDeviation="3.5"/>
<feComposite in2="SourceAlpha" operator="in" result="effect1_backgroundBlur_19_1547"/>
<feBlend mode="normal" in="SourceGraphic" in2="effect1_backgroundBlur_19_1547" result="shape"/>
<feColorMatrix in="SourceAlpha" type="matrix" values="0 0 0 0 0 0 0 0 0 0 0 0 0 0 0 0 0 0 127 0" result="hardAlpha"/>
<feOffset dy="2"/>
<feGaussianBlur stdDeviation="4"/>
<feComposite in2="hardAlpha" operator="arithmetic" k2="-1" k3="1"/>
<feColorMatrix type="matrix" values="0 0 0 0 1 0 0 0 0 1 0 0 0 0 1 0 0 0 0.25 0"/>
<feBlend mode="normal" in2="shape" result="effect2_innerShadow_19_1547"/>
</filter>
<linearGradient id="paint0_linear_19_1547" x1="61.5" y1="51" x2="61.5" y2="100" gradientUnits="userSpaceOnUse">
<stop stop-color="#F8FD00"/>
<stop offset="1" stop-color="#FD9800"/>
</linearGradient>
<linearGradient id="paint1_linear_19_1547" x1="56" y1="89.5" x2="96.5" y2="1.95655e-07" gradientUnits="userSpaceOnUse">
<stop stop-color="#DFDFDF"/>
<stop offset="1" stop-color="#92AABB" stop-opacity="0"/>
</linearGradient>
<linearGradient id="paint2_linear_19_1547" x1="13.541" y1="69.1814" x2="44.3579" y2="50.7479" gradientUnits="userSpaceOnUse">
<stop stop-color="#68717E"/>
<stop offset="1" stop-color="#DAE3EC"/>
</linearGradient>
<linearGradient id="paint3_linear_19_1547" x1="40.4654" y1="69.3758" x2="63.8234" y2="55.0901" gradientUnits="userSpaceOnUse">
<stop stop-color="#68717E"/>
<stop offset="1" stop-color="#DAE3EC"/>
</linearGradient>
<linearGradient id="paint4_linear_19_1547" x1="21.4654" y1="79.3758" x2="44.8234" y2="65.0901" gradientUnits="userSpaceOnUse">
<stop stop-color="#68717E"/>
<stop offset="1" stop-color="#DAE3EC"/>
</linearGradient>
</defs>
</svg>
